<svg width="34" height="30" viewBox="0 0 34 30" fill="none" xmlns="http://www.w3.org/2000/svg">
<path d="M30.5129 12.8566C30.5129 20.5886 19.5127 30.3544 11.5129 29.3572C3.78088 29.3572 -2.98735 15.8544 2.01286 6.35454C5.51286 -2.1459 14.7046 0.290527 17.7046 3.79059C20.8965 7.72666 30.5129 5.12459 30.5129 12.8566Z" fill="#DFEDFF"/>
<g clip-path="url(#clip0_4258_279)">
<path d="M33.2676 21.1973V22.5098H6.14258V21.1973H27.5801H33.2676Z" fill="#CCD1D9"/>
<path d="M27.5801 21.1973C28.305 21.1973 28.8926 20.6096 28.8926 19.8848C28.8926 19.1599 28.305 18.5723 27.5801 18.5723C26.8552 18.5723 26.2676 19.1599 26.2676 19.8848C26.2676 20.6096 26.8552 21.1973 27.5801 21.1973Z" fill="#AAB2BD"/>
<path d="M27.5801 18.5723C27.4077 18.572 27.2369 18.6058 27.0775 18.6717C26.9182 18.7376 26.7734 18.8343 26.6515 18.9562C26.5296 19.0781 26.4329 19.2229 26.367 19.3822C26.3011 19.5416 26.2673 19.7123 26.2676 19.8848H22.7676C22.7678 19.7123 22.734 19.5416 22.6681 19.3822C22.6023 19.2229 22.5056 19.0781 22.3837 18.9562C22.2617 18.8343 22.117 18.7376 21.9576 18.6717C21.7983 18.6058 21.6275 18.572 21.4551 18.5723H27.5801Z" fill="#656D78"/>
<path d="M21.4551 21.1973C22.18 21.1973 22.7676 20.6096 22.7676 19.8848C22.7676 19.1599 22.18 18.5723 21.4551 18.5723C20.7302 18.5723 20.1426 19.1599 20.1426 19.8848C20.1426 20.6096 20.7302 21.1973 21.4551 21.1973Z" fill="#AAB2BD"/>
<path d="M6.14258 9.38477H6.58008V18.5723H6.14258V9.38477Z" fill="#ED5565"/>
<path d="M31.9551 8.07227L32.3926 9.38477H6.14258V8.07227H31.9551Z" fill="#656D78"/>
<path d="M6.58008 9.38477H14.0176V18.5723H6.58008V9.38477ZM19.7051 9.38477V18.5723H14.0176L19.7051 9.38477Z" fill="#DA4453"/>
<path d="M19.7051 9.38477L14.0176 18.5723V9.38477H19.7051Z" fill="#ED5565"/>
<path d="M25.8301 9.38477V18.5723H19.7051L25.3926 9.38477H25.8301ZM31.9551 9.38477V18.5723L26.2676 9.38477H31.9551Z" fill="#DA4453"/>
<path d="M26.2676 9.38477L31.9551 18.5723H25.8301V9.38477H26.2676ZM25.3926 9.38477L19.7051 18.5723V9.38477H25.3926Z" fill="#ED5565"/>
<path d="M32.3932 9.82214C32.3014 9.82207 32.212 9.79314 32.1375 9.73943C32.0631 9.68573 32.0074 9.60997 31.9784 9.52289L31.5409 8.21039C31.5093 8.10176 31.5209 7.98508 31.5734 7.88484C31.6259 7.78461 31.7152 7.70863 31.8226 7.67284C31.9299 7.63706 32.047 7.64426 32.1491 7.69294C32.2513 7.74161 32.3306 7.82798 32.3704 7.93389L32.8079 9.24639C32.8298 9.31213 32.8358 9.38212 32.8254 9.45062C32.8149 9.51911 32.7883 9.58414 32.7478 9.64036C32.7073 9.69658 32.6541 9.74237 32.5924 9.77398C32.5308 9.80558 32.4625 9.82209 32.3932 9.82214Z" fill="black"/>
<path d="M31.9551 8.50977H6.14258C6.02655 8.50977 5.91527 8.46367 5.83322 8.38163C5.75117 8.29958 5.70508 8.1883 5.70508 8.07227C5.70508 7.95623 5.75117 7.84495 5.83322 7.76291C5.91527 7.68086 6.02655 7.63477 6.14258 7.63477H31.9551C32.0711 7.63477 32.1824 7.68086 32.2644 7.76291C32.3465 7.84495 32.3926 7.95623 32.3926 8.07227C32.3926 8.1883 32.3465 8.29958 32.2644 8.38163C32.1824 8.46367 32.0711 8.50977 31.9551 8.50977ZM32.3926 9.82227H6.14258C6.02655 9.82227 5.91527 9.77617 5.83322 9.69413C5.75117 9.61208 5.70508 9.5008 5.70508 9.38477C5.70508 9.26873 5.75117 9.15745 5.83322 9.07541C5.91527 8.99336 6.02655 8.94727 6.14258 8.94727H32.3926C32.5086 8.94727 32.6199 8.99336 32.7019 9.07541C32.784 9.15745 32.8301 9.26873 32.8301 9.38477C32.8301 9.5008 32.784 9.61208 32.7019 9.69413C32.6199 9.77617 32.5086 9.82227 32.3926 9.82227Z" fill="black"/>
<path d="M31.9551 19.0098C31.839 19.0098 31.7278 18.9637 31.6457 18.8816C31.5637 18.7996 31.5176 18.6883 31.5176 18.5723V9.38477C31.5176 9.26873 31.5637 9.15745 31.6457 9.07541C31.7278 8.99336 31.839 8.94727 31.9551 8.94727C32.0711 8.94727 32.1824 8.99336 32.2644 9.07541C32.3465 9.15745 32.3926 9.26873 32.3926 9.38477V18.5723C32.3926 18.6883 32.3465 18.7996 32.2644 18.8816C32.1824 18.9637 32.0711 19.0098 31.9551 19.0098Z" fill="black"/>
<path d="M33.2676 19.0098H31.9551C31.839 19.0098 31.7278 18.9637 31.6457 18.8816C31.5637 18.7996 31.5176 18.6883 31.5176 18.5723C31.5176 18.4562 31.5637 18.345 31.6457 18.2629C31.7278 18.1809 31.839 18.1348 31.9551 18.1348H33.2676C33.3836 18.1348 33.4949 18.1809 33.5769 18.2629C33.659 18.345 33.7051 18.4562 33.7051 18.5723C33.7051 18.6883 33.659 18.7996 33.5769 18.8816C33.4949 18.9637 33.3836 19.0098 33.2676 19.0098ZM19.7051 19.0098C19.589 19.0098 19.4778 18.9637 19.3957 18.8816C19.3137 18.7996 19.2676 18.6883 19.2676 18.5723V9.38477C19.2676 9.26873 19.3137 9.15745 19.3957 9.07541C19.4778 8.99336 19.589 8.94727 19.7051 8.94727C19.8211 8.94727 19.9324 8.99336 20.0144 9.07541C20.0965 9.15745 20.1426 9.26873 20.1426 9.38477V18.5723C20.1426 18.6883 20.0965 18.7996 20.0144 18.8816C19.9324 18.9637 19.8211 19.0098 19.7051 19.0098Z" fill="black"/>
<path d="M31.9551 19.0098H6.14258C6.02655 19.0098 5.91527 18.9637 5.83322 18.8816C5.75117 18.7996 5.70508 18.6883 5.70508 18.5723C5.70508 18.4562 5.75117 18.345 5.83322 18.2629C5.91527 18.1809 6.02655 18.1348 6.14258 18.1348H31.9551C32.0711 18.1348 32.1824 18.1809 32.2644 18.2629C32.3465 18.345 32.3926 18.4562 32.3926 18.5723C32.3926 18.6883 32.3465 18.7996 32.2644 18.8816C32.1824 18.9637 32.0711 19.0098 31.9551 19.0098Z" fill="black"/>
<path d="M25.8301 19.0098C25.714 19.0098 25.6028 18.9637 25.5207 18.8816C25.4387 18.7996 25.3926 18.6883 25.3926 18.5723V9.38477C25.3926 9.26873 25.4387 9.15745 25.5207 9.07541C25.6028 8.99336 25.714 8.94727 25.8301 8.94727C25.9461 8.94727 26.0574 8.99336 26.1394 9.07541C26.2215 9.15745 26.2676 9.26873 26.2676 9.38477V18.5723C26.2676 18.6883 26.2215 18.7996 26.1394 18.8816C26.0574 18.9637 25.9461 19.0098 25.8301 19.0098Z" fill="black"/>
<path d="M19.7051 19.01C19.6272 19.0099 19.5507 18.9891 19.4835 18.9496C19.4164 18.9101 19.361 18.8534 19.3231 18.7854C19.2852 18.7173 19.2661 18.6404 19.2679 18.5625C19.2697 18.4846 19.2922 18.4086 19.3332 18.3423L25.0207 9.15483C25.0817 9.05609 25.1795 8.98564 25.2925 8.95897C25.4055 8.93231 25.5244 8.95161 25.6231 9.01265C25.7219 9.07368 25.7923 9.17144 25.819 9.28442C25.8457 9.3974 25.8264 9.51634 25.7653 9.61508L20.0778 18.8026C20.0386 18.8661 19.9837 18.9185 19.9184 18.9548C19.8532 18.9911 19.7797 19.0101 19.7051 19.01ZM14.0176 19.01C13.9015 19.01 13.7903 18.9639 13.7082 18.8818C13.6262 18.7998 13.5801 18.6885 13.5801 18.5725V9.38496C13.5801 9.26893 13.6262 9.15765 13.7082 9.0756C13.7903 8.99355 13.9015 8.94746 14.0176 8.94746C14.1336 8.94746 14.2449 8.99355 14.3269 9.0756C14.409 9.15765 14.4551 9.26893 14.4551 9.38496V18.5725C14.4551 18.6885 14.409 18.7998 14.3269 18.8818C14.2449 18.9639 14.1336 19.01 14.0176 19.01ZM6.58008 19.01C6.46405 19.01 6.35277 18.9639 6.27072 18.8818C6.18867 18.7998 6.14258 18.6885 6.14258 18.5725V9.38496C6.14258 9.26893 6.18867 9.15765 6.27072 9.0756C6.35277 8.99355 6.46405 8.94746 6.58008 8.94746C6.69611 8.94746 6.80739 8.99355 6.88944 9.0756C6.97148 9.15765 7.01758 9.26893 7.01758 9.38496V18.5725C7.01758 18.6885 6.97148 18.7998 6.88944 18.8818C6.80739 18.9639 6.69611 19.01 6.58008 19.01Z" fill="black"/>
<path d="M14.0167 19.01C13.9388 19.0099 13.8623 18.9891 13.7952 18.9496C13.728 18.9101 13.6726 18.8534 13.6347 18.7854C13.5968 18.7173 13.5777 18.6404 13.5795 18.5625C13.5813 18.4846 13.6039 18.4086 13.6448 18.3423L19.3323 9.15483C19.3625 9.10594 19.4021 9.06348 19.4487 9.02987C19.4954 8.99627 19.5482 8.97217 19.6041 8.95897C19.66 8.94577 19.718 8.94371 19.7748 8.95292C19.8315 8.96213 19.8859 8.98243 19.9348 9.01265C19.9837 9.04287 20.0261 9.08242 20.0597 9.12905C20.0933 9.17568 20.1174 9.22848 20.1306 9.28442C20.1438 9.34036 20.1459 9.39835 20.1367 9.45509C20.1275 9.51182 20.1072 9.56619 20.077 9.61508L14.3895 18.8026C14.3502 18.8661 14.2953 18.9185 14.2301 18.9548C14.1648 18.9911 14.0914 19.0101 14.0167 19.01ZM31.9555 19.01C31.8809 19.0101 31.8074 18.9911 31.7422 18.9548C31.6769 18.9185 31.622 18.8661 31.5828 18.8026L25.8953 9.61508C25.865 9.56619 25.8447 9.51182 25.8355 9.45509C25.8263 9.39835 25.8284 9.34036 25.8416 9.28442C25.8683 9.17144 25.9387 9.07368 26.0375 9.01265C26.1362 8.95161 26.2551 8.93231 26.3681 8.95897C26.4811 8.98564 26.5789 9.05609 26.6399 9.15483L32.3274 18.3423C32.3684 18.4086 32.3909 18.4847 32.3927 18.5626C32.3945 18.6405 32.3754 18.7175 32.3374 18.7855C32.2994 18.8536 32.244 18.9103 32.1768 18.9498C32.1096 18.9892 32.0335 19.01 31.9555 19.01ZM9.64258 11.135H7.89258C7.77655 11.135 7.66527 11.0889 7.58322 11.0068C7.50117 10.9248 7.45508 10.8135 7.45508 10.6975C7.45508 10.5814 7.50117 10.4701 7.58322 10.3881C7.66527 10.3061 7.77655 10.26 7.89258 10.26H9.64258C9.75861 10.26 9.86989 10.3061 9.95194 10.3881C10.034 10.4701 10.0801 10.5814 10.0801 10.6975C10.0801 10.8135 10.034 10.9248 9.95194 11.0068C9.86989 11.0889 9.75861 11.135 9.64258 11.135ZM12.7042 11.135H10.9542C10.8382 11.135 10.7269 11.0889 10.6448 11.0068C10.5628 10.9248 10.5167 10.8135 10.5167 10.6975C10.5167 10.5814 10.5628 10.4701 10.6448 10.3881C10.7269 10.3061 10.8382 10.26 10.9542 10.26H12.7042C12.8202 10.26 12.9315 10.3061 13.0136 10.3881C13.0956 10.4701 13.1417 10.5814 13.1417 10.6975C13.1417 10.8135 13.0956 10.9248 13.0136 11.0068C12.9315 11.0889 12.8202 11.135 12.7042 11.135ZM9.64258 12.4475H7.89258C7.77655 12.4475 7.66527 12.4014 7.58322 12.3193C7.50117 12.2373 7.45508 12.126 7.45508 12.01C7.45508 11.8939 7.50117 11.7826 7.58322 11.7006C7.66527 11.6186 7.77655 11.5725 7.89258 11.5725H9.64258C9.75861 11.5725 9.86989 11.6186 9.95194 11.7006C10.034 11.7826 10.0801 11.8939 10.0801 12.01C10.0801 12.126 10.034 12.2373 9.95194 12.3193C9.86989 12.4014 9.75861 12.4475 9.64258 12.4475ZM12.7042 12.4475H10.9542C10.8382 12.4475 10.7269 12.4014 10.6448 12.3193C10.5628 12.2373 10.5167 12.126 10.5167 12.01C10.5167 11.8939 10.5628 11.7826 10.6448 11.7006C10.7269 11.6186 10.8382 11.5725 10.9542 11.5725H12.7042C12.8202 11.5725 12.9315 11.6186 13.0136 11.7006C13.0956 11.7826 13.1417 11.8939 13.1417 12.01C13.1417 12.126 13.0956 12.2373 13.0136 12.3193C12.9315 12.4014 12.8202 12.4475 12.7042 12.4475ZM9.64258 13.76H7.89258C7.77655 13.76 7.66527 13.7139 7.58322 13.6318C7.50117 13.5498 7.45508 13.4385 7.45508 13.3225C7.45508 13.2064 7.50117 13.0951 7.58322 13.0131C7.66527 12.9311 7.77655 12.885 7.89258 12.885H9.64258C9.75861 12.885 9.86989 12.9311 9.95194 13.0131C10.034 13.0951 10.0801 13.2064 10.0801 13.3225C10.0801 13.4385 10.034 13.5498 9.95194 13.6318C9.86989 13.7139 9.75861 13.76 9.64258 13.76ZM12.7042 13.76H10.9542C10.8382 13.76 10.7269 13.7139 10.6448 13.6318C10.5628 13.5498 10.5167 13.4385 10.5167 13.3225C10.5167 13.2064 10.5628 13.0951 10.6448 13.0131C10.7269 12.9311 10.8382 12.885 10.9542 12.885H12.7042C12.8202 12.885 12.9315 12.9311 13.0136 13.0131C13.0956 13.0951 13.1417 13.2064 13.1417 13.3225C13.1417 13.4385 13.0956 13.5498 13.0136 13.6318C12.9315 13.7139 12.8202 13.76 12.7042 13.76ZM9.64258 15.0725H7.89258C7.77655 15.0725 7.66527 15.0264 7.58322 14.9443C7.50117 14.8623 7.45508 14.751 7.45508 14.635C7.45508 14.5189 7.50117 14.4076 7.58322 14.3256C7.66527 14.2436 7.77655 14.1975 7.89258 14.1975H9.64258C9.75861 14.1975 9.86989 14.2436 9.95194 14.3256C10.034 14.4076 10.0801 14.5189 10.0801 14.635C10.0801 14.751 10.034 14.8623 9.95194 14.9443C9.86989 15.0264 9.75861 15.0725 9.64258 15.0725ZM12.7042 15.0725H10.9542C10.8382 15.0725 10.7269 15.0264 10.6448 14.9443C10.5628 14.8623 10.5167 14.751 10.5167 14.635C10.5167 14.5189 10.5628 14.4076 10.6448 14.3256C10.7269 14.2436 10.8382 14.1975 10.9542 14.1975H12.7042C12.8202 14.1975 12.9315 14.2436 13.0136 14.3256C13.0956 14.4076 13.1417 14.5189 13.1417 14.635C13.1417 14.751 13.0956 14.8623 13.0136 14.9443C12.9315 15.0264 12.8202 15.0725 12.7042 15.0725ZM9.64258 16.385H7.89258C7.77655 16.385 7.66527 16.3389 7.58322 16.2568C7.50117 16.1748 7.45508 16.0635 7.45508 15.9475C7.45508 15.8314 7.50117 15.7201 7.58322 15.6381C7.66527 15.5561 7.77655 15.51 7.89258 15.51H9.64258C9.75861 15.51 9.86989 15.5561 9.95194 15.6381C10.034 15.7201 10.0801 15.8314 10.0801 15.9475C10.0801 16.0635 10.034 16.1748 9.95194 16.2568C9.86989 16.3389 9.75861 16.385 9.64258 16.385ZM12.7042 16.385H10.9542C10.8382 16.385 10.7269 16.3389 10.6448 16.2568C10.5628 16.1748 10.5167 16.0635 10.5167 15.9475C10.5167 15.8314 10.5628 15.7201 10.6448 15.6381C10.7269 15.5561 10.8382 15.51 10.9542 15.51H12.7042C12.8202 15.51 12.9315 15.5561 13.0136 15.6381C13.0956 15.7201 13.1417 15.8314 13.1417 15.9475C13.1417 16.0635 13.0956 16.1748 13.0136 16.2568C12.9315 16.3389 12.8202 16.385 12.7042 16.385ZM9.64258 17.6975H7.89258C7.77655 17.6975 7.66527 17.6514 7.58322 17.5693C7.50117 17.4873 7.45508 17.376 7.45508 17.26C7.45508 17.1439 7.50117 17.0326 7.58322 16.9506C7.66527 16.8686 7.77655 16.8225 7.89258 16.8225H9.64258C9.75861 16.8225 9.86989 16.8686 9.95194 16.9506C10.034 17.0326 10.0801 17.1439 10.0801 17.26C10.0801 17.376 10.034 17.4873 9.95194 17.5693C9.86989 17.6514 9.75861 17.6975 9.64258 17.6975ZM12.7042 17.6975H10.9542C10.8382 17.6975 10.7269 17.6514 10.6448 17.5693C10.5628 17.4873 10.5167 17.376 10.5167 17.26C10.5167 17.1439 10.5628 17.0326 10.6448 16.9506C10.7269 16.8686 10.8382 16.8225 10.9542 16.8225H12.7042C12.8202 16.8225 12.9315 16.8686 13.0136 16.9506C13.0956 17.0326 13.1417 17.1439 13.1417 17.26C13.1417 17.376 13.0956 17.4873 13.0136 17.5693C12.9315 17.6514 12.8202 17.6975 12.7042 17.6975ZM21.4551 21.635C21.109 21.635 20.7706 21.5323 20.4828 21.34C20.195 21.1477 19.9707 20.8744 19.8383 20.5547C19.7058 20.2349 19.6712 19.883 19.7387 19.5436C19.8062 19.2041 19.9729 18.8923 20.2176 18.6475C20.4624 18.4028 20.7742 18.2361 21.1137 18.1686C21.4531 18.1011 21.805 18.1357 22.1248 18.2682C22.4445 18.4006 22.7179 18.6249 22.9101 18.9127C23.1024 19.2005 23.2051 19.5388 23.2051 19.885C23.2046 20.3489 23.0201 20.7938 22.692 21.1219C22.3639 21.45 21.9191 21.6345 21.4551 21.635ZM21.4551 19.01C21.282 19.01 21.1128 19.0613 20.969 19.1574C20.8251 19.2536 20.7129 19.3902 20.6467 19.5501C20.5805 19.71 20.5631 19.8859 20.5969 20.0557C20.6307 20.2254 20.714 20.3813 20.8364 20.5037C20.9587 20.626 21.1146 20.7094 21.2844 20.7431C21.4541 20.7769 21.63 20.7596 21.7899 20.6934C21.9498 20.6271 22.0865 20.515 22.1826 20.3711C22.2788 20.2272 22.3301 20.058 22.3301 19.885C22.3297 19.653 22.2374 19.4306 22.0734 19.2666C21.9094 19.1026 21.687 19.0103 21.4551 19.01Z" fill="black"/>
<path d="M21.4631 20.3223C21.4057 20.3226 21.3487 20.3115 21.2955 20.2898C21.2424 20.2681 21.194 20.2361 21.1531 20.1957C21.0707 20.114 21.024 20.003 21.0234 19.887C21.0229 19.7709 21.0684 19.6594 21.15 19.577C21.2317 19.4945 21.3427 19.4478 21.4588 19.4473H21.4631C21.5792 19.4473 21.6904 19.4934 21.7725 19.5754C21.8545 19.6575 21.9006 19.7687 21.9006 19.8848C21.9006 20.0008 21.8545 20.1121 21.7725 20.1941C21.6904 20.2762 21.5792 20.3223 21.4631 20.3223ZM27.5794 21.6348C27.2333 21.6348 26.8949 21.5321 26.6071 21.3398C26.3193 21.1475 26.095 20.8742 25.9626 20.5545C25.8301 20.2347 25.7955 19.8828 25.863 19.5434C25.9305 19.2039 26.0972 18.8921 26.3419 18.6473C26.5867 18.4026 26.8985 18.2359 27.238 18.1684C27.5774 18.1009 27.9293 18.1355 28.2491 18.268C28.5688 18.4004 28.8422 18.6247 29.0345 18.9125C29.2267 19.2003 29.3294 19.5386 29.3294 19.8848C29.3289 20.3488 29.1444 20.7936 28.8163 21.1217C28.4882 21.4498 28.0434 21.6343 27.5794 21.6348ZM27.5794 19.0098C27.4063 19.0098 27.2371 19.0611 27.0933 19.1572C26.9494 19.2534 26.8372 19.39 26.771 19.5499C26.7048 19.7098 26.6874 19.8857 26.7212 20.0555C26.755 20.2252 26.8383 20.3811 26.9607 20.5035C27.083 20.6259 27.2389 20.7092 27.4087 20.743C27.5784 20.7767 27.7543 20.7594 27.9142 20.6932C28.0741 20.6269 28.2108 20.5148 28.3069 20.3709C28.4031 20.227 28.4544 20.0578 28.4544 19.8848C28.454 19.6528 28.3617 19.4305 28.1977 19.2664C28.0337 19.1024 27.8113 19.0101 27.5794 19.0098Z" fill="black"/>
<path d="M27.5888 20.3223C27.4728 20.3228 27.3613 20.2773 27.2788 20.1957C27.1964 20.114 27.1497 20.003 27.1491 19.887C27.1486 19.7709 27.1941 19.6594 27.2757 19.577C27.3574 19.4945 27.4684 19.4478 27.5845 19.4473H27.5888C27.7049 19.4473 27.8161 19.4934 27.8982 19.5754C27.9802 19.6575 28.0263 19.7687 28.0263 19.8848C28.0263 20.0008 27.9802 20.1121 27.8982 20.1941C27.8161 20.2762 27.7049 20.3223 27.5888 20.3223ZM26.268 20.3223H22.7676C22.6515 20.3223 22.5403 20.2762 22.4582 20.1941C22.3762 20.1121 22.3301 20.0008 22.3301 19.8848C22.3301 19.7687 22.3762 19.6575 22.4582 19.5754C22.5403 19.4934 22.6515 19.4473 22.7676 19.4473H26.268C26.384 19.4473 26.4953 19.4934 26.5774 19.5754C26.6594 19.6575 26.7055 19.7687 26.7055 19.8848C26.7055 20.0008 26.6594 20.1121 26.5774 20.1941C26.4953 20.2762 26.384 20.3223 26.268 20.3223ZM33.2676 21.6348H6.14258C6.02655 21.6348 5.91527 21.5887 5.83322 21.5066C5.75117 21.4246 5.70508 21.3133 5.70508 21.1973C5.70508 21.0812 5.75117 20.97 5.83322 20.8879C5.91527 20.8059 6.02655 20.7598 6.14258 20.7598H33.2676C33.3836 20.7598 33.4949 20.8059 33.5769 20.8879C33.659 20.97 33.7051 21.0812 33.7051 21.1973C33.7051 21.3133 33.659 21.4246 33.5769 21.5066C33.4949 21.5887 33.3836 21.6348 33.2676 21.6348ZM33.2676 22.9473H6.14258C6.02655 22.9473 5.91527 22.9012 5.83322 22.8191C5.75117 22.7371 5.70508 22.6258 5.70508 22.5098C5.70508 22.3937 5.75117 22.2825 5.83322 22.2004C5.91527 22.1184 6.02655 22.0723 6.14258 22.0723H33.2676C33.3836 22.0723 33.4949 22.1184 33.5769 22.2004C33.659 22.2825 33.7051 22.3937 33.7051 22.5098C33.7051 22.6258 33.659 22.7371 33.5769 22.8191C33.4949 22.9012 33.3836 22.9473 33.2676 22.9473Z" fill="black"/>
</g>
<defs>
<clipPath id="clip0_4258_279">
<rect width="28" height="28" fill="white" transform="translate(5.70508 1.29102)"/>
</clipPath>
</defs>
</svg>
