<svg width="34" height="30" viewBox="0 0 34 30" fill="none" xmlns="http://www.w3.org/2000/svg">
<path d="M30.5129 12.8566C30.5129 20.5886 19.5127 30.3544 11.5129 29.3572C3.78088 29.3572 -2.98735 15.8544 2.01286 6.35454C5.51286 -2.1459 14.7046 0.290527 17.7046 3.79059C20.8965 7.72666 30.5129 5.12459 30.5129 12.8566Z" fill="#DFEDFF"/>
<g clip-path="url(#clip0_4258_252)">
<path d="M33.2656 21.1973V22.5098H6.14062V21.1973H27.5781H33.2656Z" fill="#CCD1D9"/>
<path d="M27.5781 21.1973C28.303 21.1973 28.8906 20.6096 28.8906 19.8848C28.8906 19.1599 28.303 18.5723 27.5781 18.5723C26.8533 18.5723 26.2656 19.1599 26.2656 19.8848C26.2656 20.6096 26.8533 21.1973 27.5781 21.1973Z" fill="#AAB2BD"/>
<path d="M27.5781 18.5723C27.4057 18.572 27.2349 18.6058 27.0756 18.6717C26.9162 18.7376 26.7715 18.8343 26.6495 18.9562C26.5276 19.0781 26.4309 19.2229 26.3651 19.3822C26.2992 19.5416 26.2654 19.7123 26.2656 19.8848H22.7656C22.7659 19.7123 22.7321 19.5416 22.6662 19.3822C22.6003 19.2229 22.5036 19.0781 22.3817 18.9562C22.2598 18.8343 22.115 18.7376 21.9557 18.6717C21.7963 18.6058 21.6255 18.572 21.4531 18.5723H27.5781Z" fill="#656D78"/>
<path d="M21.4531 21.1973C22.178 21.1973 22.7656 20.6096 22.7656 19.8848C22.7656 19.1599 22.178 18.5723 21.4531 18.5723C20.7283 18.5723 20.1406 19.1599 20.1406 19.8848C20.1406 20.6096 20.7283 21.1973 21.4531 21.1973Z" fill="#AAB2BD"/>
<path d="M6.14062 9.38477H6.57812V18.5723H6.14062V9.38477Z" fill="#ED5565"/>
<path d="M31.9531 8.07227L32.3906 9.38477H6.14062V8.07227H31.9531Z" fill="#656D78"/>
<path d="M6.57812 9.38477H14.0156V18.5723H6.57812V9.38477ZM19.7031 9.38477V18.5723H14.0156L19.7031 9.38477Z" fill="#DA4453"/>
<path d="M19.7031 9.38477L14.0156 18.5723V9.38477H19.7031Z" fill="#ED5565"/>
<path d="M25.8281 9.38477V18.5723H19.7031L25.3906 9.38477H25.8281ZM31.9531 9.38477V18.5723L26.2656 9.38477H31.9531Z" fill="#DA4453"/>
<path d="M26.2656 9.38477L31.9531 18.5723H25.8281V9.38477H26.2656ZM25.3906 9.38477L19.7031 18.5723V9.38477H25.3906Z" fill="#ED5565"/>
<path d="M32.3893 9.82214C32.2975 9.82207 32.2081 9.79314 32.1336 9.73943C32.0592 9.68573 32.0035 9.60997 31.9745 9.52289L31.537 8.21039C31.5053 8.10176 31.517 7.98508 31.5695 7.88484C31.622 7.78461 31.7113 7.70863 31.8187 7.67284C31.926 7.63706 32.0431 7.64426 32.1452 7.69294C32.2474 7.74161 32.3267 7.82798 32.3665 7.93389L32.804 9.24639C32.8259 9.31213 32.8319 9.38212 32.8214 9.45062C32.811 9.51911 32.7844 9.58414 32.7439 9.64036C32.7034 9.69658 32.6502 9.74237 32.5885 9.77398C32.5269 9.80558 32.4586 9.82209 32.3893 9.82214Z" fill="black"/>
<path d="M31.9531 8.50977H6.14062C6.02459 8.50977 5.91331 8.46367 5.83127 8.38163C5.74922 8.29958 5.70312 8.1883 5.70312 8.07227C5.70312 7.95623 5.74922 7.84495 5.83127 7.76291C5.91331 7.68086 6.02459 7.63477 6.14062 7.63477H31.9531C32.0692 7.63477 32.1804 7.68086 32.2625 7.76291C32.3445 7.84495 32.3906 7.95623 32.3906 8.07227C32.3906 8.1883 32.3445 8.29958 32.2625 8.38163C32.1804 8.46367 32.0692 8.50977 31.9531 8.50977ZM32.3906 9.82227H6.14062C6.02459 9.82227 5.91331 9.77617 5.83127 9.69413C5.74922 9.61208 5.70312 9.5008 5.70312 9.38477C5.70312 9.26873 5.74922 9.15745 5.83127 9.07541C5.91331 8.99336 6.02459 8.94727 6.14062 8.94727H32.3906C32.5067 8.94727 32.6179 8.99336 32.7 9.07541C32.782 9.15745 32.8281 9.26873 32.8281 9.38477C32.8281 9.5008 32.782 9.61208 32.7 9.69413C32.6179 9.77617 32.5067 9.82227 32.3906 9.82227Z" fill="black"/>
<path d="M31.9531 19.0098C31.8371 19.0098 31.7258 18.9637 31.6438 18.8816C31.5617 18.7996 31.5156 18.6883 31.5156 18.5723V9.38477C31.5156 9.26873 31.5617 9.15745 31.6438 9.07541C31.7258 8.99336 31.8371 8.94727 31.9531 8.94727C32.0692 8.94727 32.1804 8.99336 32.2625 9.07541C32.3445 9.15745 32.3906 9.26873 32.3906 9.38477V18.5723C32.3906 18.6883 32.3445 18.7996 32.2625 18.8816C32.1804 18.9637 32.0692 19.0098 31.9531 19.0098Z" fill="black"/>
<path d="M33.2656 19.0098H31.9531C31.8371 19.0098 31.7258 18.9637 31.6438 18.8816C31.5617 18.7996 31.5156 18.6883 31.5156 18.5723C31.5156 18.4562 31.5617 18.345 31.6438 18.2629C31.7258 18.1809 31.8371 18.1348 31.9531 18.1348H33.2656C33.3817 18.1348 33.4929 18.1809 33.575 18.2629C33.657 18.345 33.7031 18.4562 33.7031 18.5723C33.7031 18.6883 33.657 18.7996 33.575 18.8816C33.4929 18.9637 33.3817 19.0098 33.2656 19.0098ZM19.7031 19.0098C19.5871 19.0098 19.4758 18.9637 19.3938 18.8816C19.3117 18.7996 19.2656 18.6883 19.2656 18.5723V9.38477C19.2656 9.26873 19.3117 9.15745 19.3938 9.07541C19.4758 8.99336 19.5871 8.94727 19.7031 8.94727C19.8192 8.94727 19.9304 8.99336 20.0125 9.07541C20.0945 9.15745 20.1406 9.26873 20.1406 9.38477V18.5723C20.1406 18.6883 20.0945 18.7996 20.0125 18.8816C19.9304 18.9637 19.8192 19.0098 19.7031 19.0098Z" fill="black"/>
<path d="M31.9531 19.0098H6.14062C6.02459 19.0098 5.91331 18.9637 5.83127 18.8816C5.74922 18.7996 5.70312 18.6883 5.70312 18.5723C5.70312 18.4562 5.74922 18.345 5.83127 18.2629C5.91331 18.1809 6.02459 18.1348 6.14062 18.1348H31.9531C32.0692 18.1348 32.1804 18.1809 32.2625 18.2629C32.3445 18.345 32.3906 18.4562 32.3906 18.5723C32.3906 18.6883 32.3445 18.7996 32.2625 18.8816C32.1804 18.9637 32.0692 19.0098 31.9531 19.0098Z" fill="black"/>
<path d="M25.8281 19.0098C25.7121 19.0098 25.6008 18.9637 25.5188 18.8816C25.4367 18.7996 25.3906 18.6883 25.3906 18.5723V9.38477C25.3906 9.26873 25.4367 9.15745 25.5188 9.07541C25.6008 8.99336 25.7121 8.94727 25.8281 8.94727C25.9442 8.94727 26.0554 8.99336 26.1375 9.07541C26.2195 9.15745 26.2656 9.26873 26.2656 9.38477V18.5723C26.2656 18.6883 26.2195 18.7996 26.1375 18.8816C26.0554 18.9637 25.9442 19.0098 25.8281 19.0098Z" fill="black"/>
<path d="M19.7031 19.01C19.6252 19.0099 19.5487 18.9891 19.4816 18.9496C19.4144 18.9101 19.359 18.8534 19.3211 18.7854C19.2832 18.7173 19.2642 18.6404 19.266 18.5625C19.2677 18.4846 19.2903 18.4086 19.3313 18.3423L25.0187 9.15483C25.0798 9.05609 25.1775 8.98564 25.2905 8.95897C25.4035 8.93231 25.5224 8.95161 25.6212 9.01265C25.7199 9.07368 25.7904 9.17144 25.8171 9.28442C25.8437 9.3974 25.8244 9.51634 25.7634 9.61508L20.0759 18.8026C20.0366 18.8661 19.9817 18.9185 19.9165 18.9548C19.8512 18.9911 19.7778 19.0101 19.7031 19.01ZM14.0156 19.01C13.8996 19.01 13.7883 18.9639 13.7063 18.8818C13.6242 18.7998 13.5781 18.6885 13.5781 18.5725V9.38496C13.5781 9.26893 13.6242 9.15765 13.7063 9.0756C13.7883 8.99355 13.8996 8.94746 14.0156 8.94746C14.1317 8.94746 14.2429 8.99355 14.325 9.0756C14.407 9.15765 14.4531 9.26893 14.4531 9.38496V18.5725C14.4531 18.6885 14.407 18.7998 14.325 18.8818C14.2429 18.9639 14.1317 19.01 14.0156 19.01ZM6.57812 19.01C6.46209 19.01 6.35081 18.9639 6.26877 18.8818C6.18672 18.7998 6.14062 18.6885 6.14062 18.5725V9.38496C6.14062 9.26893 6.18672 9.15765 6.26877 9.0756C6.35081 8.99355 6.46209 8.94746 6.57812 8.94746C6.69416 8.94746 6.80544 8.99355 6.88748 9.0756C6.96953 9.15765 7.01562 9.26893 7.01562 9.38496V18.5725C7.01562 18.6885 6.96953 18.7998 6.88748 18.8818C6.80544 18.9639 6.69416 19.01 6.57812 19.01Z" fill="black"/>
<path d="M14.0147 19.01C13.9368 19.0099 13.8604 18.9891 13.7932 18.9496C13.7261 18.9101 13.6707 18.8534 13.6328 18.7854C13.5948 18.7173 13.5758 18.6404 13.5776 18.5625C13.5794 18.4846 13.6019 18.4086 13.6429 18.3423L19.3304 9.15483C19.3606 9.10594 19.4002 9.06348 19.4468 9.02987C19.4934 8.99627 19.5462 8.97217 19.6021 8.95897C19.6581 8.94577 19.7161 8.94371 19.7728 8.95292C19.8296 8.96213 19.8839 8.98243 19.9328 9.01265C19.9817 9.04287 20.0242 9.08242 20.0578 9.12905C20.0914 9.17568 20.1155 9.22848 20.1287 9.28442C20.1419 9.34036 20.1439 9.39835 20.1347 9.45509C20.1255 9.51182 20.1052 9.56619 20.075 9.61508L14.3875 18.8026C14.3482 18.8661 14.2934 18.9185 14.2281 18.9548C14.1629 18.9911 14.0894 19.0101 14.0147 19.01ZM31.9536 19.01C31.8789 19.0101 31.8054 18.9911 31.7402 18.9548C31.675 18.9185 31.6201 18.8661 31.5808 18.8026L25.8933 9.61508C25.8631 9.56619 25.8428 9.51182 25.8336 9.45509C25.8244 9.39835 25.8264 9.34036 25.8396 9.28442C25.8663 9.17144 25.9368 9.07368 26.0355 9.01265C26.1342 8.95161 26.2532 8.93231 26.3662 8.95897C26.4791 8.98564 26.5769 9.05609 26.6379 9.15483L32.3254 18.3423C32.3664 18.4086 32.389 18.4847 32.3907 18.5626C32.3925 18.6405 32.3734 18.7175 32.3355 18.7855C32.2975 18.8536 32.242 18.9103 32.1748 18.9498C32.1076 18.9892 32.0315 19.01 31.9536 19.01ZM9.64062 11.135H7.89062C7.77459 11.135 7.66331 11.0889 7.58127 11.0068C7.49922 10.9248 7.45312 10.8135 7.45312 10.6975C7.45312 10.5814 7.49922 10.4701 7.58127 10.3881C7.66331 10.3061 7.77459 10.26 7.89062 10.26H9.64062C9.75666 10.26 9.86794 10.3061 9.94998 10.3881C10.032 10.4701 10.0781 10.5814 10.0781 10.6975C10.0781 10.8135 10.032 10.9248 9.94998 11.0068C9.86794 11.0889 9.75666 11.135 9.64062 11.135ZM12.7023 11.135H10.9523C10.8362 11.135 10.7249 11.0889 10.6429 11.0068C10.5608 10.9248 10.5148 10.8135 10.5148 10.6975C10.5148 10.5814 10.5608 10.4701 10.6429 10.3881C10.7249 10.3061 10.8362 10.26 10.9523 10.26H12.7023C12.8183 10.26 12.9296 10.3061 13.0116 10.3881C13.0937 10.4701 13.1397 10.5814 13.1397 10.6975C13.1397 10.8135 13.0937 10.9248 13.0116 11.0068C12.9296 11.0889 12.8183 11.135 12.7023 11.135ZM9.64062 12.4475H7.89062C7.77459 12.4475 7.66331 12.4014 7.58127 12.3193C7.49922 12.2373 7.45312 12.126 7.45312 12.01C7.45312 11.8939 7.49922 11.7826 7.58127 11.7006C7.66331 11.6186 7.77459 11.5725 7.89062 11.5725H9.64062C9.75666 11.5725 9.86794 11.6186 9.94998 11.7006C10.032 11.7826 10.0781 11.8939 10.0781 12.01C10.0781 12.126 10.032 12.2373 9.94998 12.3193C9.86794 12.4014 9.75666 12.4475 9.64062 12.4475ZM12.7023 12.4475H10.9523C10.8362 12.4475 10.7249 12.4014 10.6429 12.3193C10.5608 12.2373 10.5148 12.126 10.5148 12.01C10.5148 11.8939 10.5608 11.7826 10.6429 11.7006C10.7249 11.6186 10.8362 11.5725 10.9523 11.5725H12.7023C12.8183 11.5725 12.9296 11.6186 13.0116 11.7006C13.0937 11.7826 13.1397 11.8939 13.1397 12.01C13.1397 12.126 13.0937 12.2373 13.0116 12.3193C12.9296 12.4014 12.8183 12.4475 12.7023 12.4475ZM9.64062 13.76H7.89062C7.77459 13.76 7.66331 13.7139 7.58127 13.6318C7.49922 13.5498 7.45312 13.4385 7.45312 13.3225C7.45312 13.2064 7.49922 13.0951 7.58127 13.0131C7.66331 12.9311 7.77459 12.885 7.89062 12.885H9.64062C9.75666 12.885 9.86794 12.9311 9.94998 13.0131C10.032 13.0951 10.0781 13.2064 10.0781 13.3225C10.0781 13.4385 10.032 13.5498 9.94998 13.6318C9.86794 13.7139 9.75666 13.76 9.64062 13.76ZM12.7023 13.76H10.9523C10.8362 13.76 10.7249 13.7139 10.6429 13.6318C10.5608 13.5498 10.5148 13.4385 10.5148 13.3225C10.5148 13.2064 10.5608 13.0951 10.6429 13.0131C10.7249 12.9311 10.8362 12.885 10.9523 12.885H12.7023C12.8183 12.885 12.9296 12.9311 13.0116 13.0131C13.0937 13.0951 13.1397 13.2064 13.1397 13.3225C13.1397 13.4385 13.0937 13.5498 13.0116 13.6318C12.9296 13.7139 12.8183 13.76 12.7023 13.76ZM9.64062 15.0725H7.89062C7.77459 15.0725 7.66331 15.0264 7.58127 14.9443C7.49922 14.8623 7.45312 14.751 7.45312 14.635C7.45312 14.5189 7.49922 14.4076 7.58127 14.3256C7.66331 14.2436 7.77459 14.1975 7.89062 14.1975H9.64062C9.75666 14.1975 9.86794 14.2436 9.94998 14.3256C10.032 14.4076 10.0781 14.5189 10.0781 14.635C10.0781 14.751 10.032 14.8623 9.94998 14.9443C9.86794 15.0264 9.75666 15.0725 9.64062 15.0725ZM12.7023 15.0725H10.9523C10.8362 15.0725 10.7249 15.0264 10.6429 14.9443C10.5608 14.8623 10.5148 14.751 10.5148 14.635C10.5148 14.5189 10.5608 14.4076 10.6429 14.3256C10.7249 14.2436 10.8362 14.1975 10.9523 14.1975H12.7023C12.8183 14.1975 12.9296 14.2436 13.0116 14.3256C13.0937 14.4076 13.1397 14.5189 13.1397 14.635C13.1397 14.751 13.0937 14.8623 13.0116 14.9443C12.9296 15.0264 12.8183 15.0725 12.7023 15.0725ZM9.64062 16.385H7.89062C7.77459 16.385 7.66331 16.3389 7.58127 16.2568C7.49922 16.1748 7.45312 16.0635 7.45312 15.9475C7.45312 15.8314 7.49922 15.7201 7.58127 15.6381C7.66331 15.5561 7.77459 15.51 7.89062 15.51H9.64062C9.75666 15.51 9.86794 15.5561 9.94998 15.6381C10.032 15.7201 10.0781 15.8314 10.0781 15.9475C10.0781 16.0635 10.032 16.1748 9.94998 16.2568C9.86794 16.3389 9.75666 16.385 9.64062 16.385ZM12.7023 16.385H10.9523C10.8362 16.385 10.7249 16.3389 10.6429 16.2568C10.5608 16.1748 10.5148 16.0635 10.5148 15.9475C10.5148 15.8314 10.5608 15.7201 10.6429 15.6381C10.7249 15.5561 10.8362 15.51 10.9523 15.51H12.7023C12.8183 15.51 12.9296 15.5561 13.0116 15.6381C13.0937 15.7201 13.1397 15.8314 13.1397 15.9475C13.1397 16.0635 13.0937 16.1748 13.0116 16.2568C12.9296 16.3389 12.8183 16.385 12.7023 16.385ZM9.64062 17.6975H7.89062C7.77459 17.6975 7.66331 17.6514 7.58127 17.5693C7.49922 17.4873 7.45312 17.376 7.45312 17.26C7.45312 17.1439 7.49922 17.0326 7.58127 16.9506C7.66331 16.8686 7.77459 16.8225 7.89062 16.8225H9.64062C9.75666 16.8225 9.86794 16.8686 9.94998 16.9506C10.032 17.0326 10.0781 17.1439 10.0781 17.26C10.0781 17.376 10.032 17.4873 9.94998 17.5693C9.86794 17.6514 9.75666 17.6975 9.64062 17.6975ZM12.7023 17.6975H10.9523C10.8362 17.6975 10.7249 17.6514 10.6429 17.5693C10.5608 17.4873 10.5148 17.376 10.5148 17.26C10.5148 17.1439 10.5608 17.0326 10.6429 16.9506C10.7249 16.8686 10.8362 16.8225 10.9523 16.8225H12.7023C12.8183 16.8225 12.9296 16.8686 13.0116 16.9506C13.0937 17.0326 13.1397 17.1439 13.1397 17.26C13.1397 17.376 13.0937 17.4873 13.0116 17.5693C12.9296 17.6514 12.8183 17.6975 12.7023 17.6975ZM21.4531 21.635C21.107 21.635 20.7687 21.5323 20.4809 21.34C20.1931 21.1477 19.9688 20.8744 19.8363 20.5547C19.7039 20.2349 19.6692 19.883 19.7368 19.5436C19.8043 19.2041 19.9709 18.8923 20.2157 18.6475C20.4604 18.4028 20.7723 18.2361 21.1117 18.1686C21.4512 18.1011 21.8031 18.1357 22.1228 18.2682C22.4426 18.4006 22.7159 18.6249 22.9082 18.9127C23.1005 19.2005 23.2031 19.5388 23.2031 19.885C23.2027 20.3489 23.0181 20.7938 22.6901 21.1219C22.362 21.45 21.9171 21.6345 21.4531 21.635ZM21.4531 19.01C21.2801 19.01 21.1109 19.0613 20.967 19.1574C20.8231 19.2536 20.711 19.3902 20.6447 19.5501C20.5785 19.71 20.5612 19.8859 20.5949 20.0557C20.6287 20.2254 20.712 20.3813 20.8344 20.5037C20.9568 20.626 21.1127 20.7094 21.2824 20.7431C21.4522 20.7769 21.6281 20.7596 21.788 20.6934C21.9479 20.6271 22.0845 20.515 22.1807 20.3711C22.2768 20.2272 22.3281 20.058 22.3281 19.885C22.3278 19.653 22.2355 19.4306 22.0715 19.2666C21.9074 19.1026 21.6851 19.0103 21.4531 19.01Z" fill="black"/>
<path d="M21.4631 20.3223C21.4057 20.3226 21.3487 20.3115 21.2955 20.2898C21.2424 20.2681 21.194 20.2361 21.1531 20.1957C21.0707 20.114 21.024 20.003 21.0234 19.887C21.0229 19.7709 21.0684 19.6594 21.15 19.577C21.2317 19.4945 21.3427 19.4478 21.4588 19.4473H21.4631C21.5792 19.4473 21.6904 19.4934 21.7725 19.5754C21.8545 19.6575 21.9006 19.7687 21.9006 19.8848C21.9006 20.0008 21.8545 20.1121 21.7725 20.1941C21.6904 20.2762 21.5792 20.3223 21.4631 20.3223ZM27.5794 21.6348C27.2333 21.6348 26.8949 21.5321 26.6071 21.3398C26.3193 21.1475 26.095 20.8742 25.9626 20.5545C25.8301 20.2347 25.7955 19.8828 25.863 19.5434C25.9305 19.2039 26.0972 18.8921 26.3419 18.6473C26.5867 18.4026 26.8985 18.2359 27.238 18.1684C27.5774 18.1009 27.9293 18.1355 28.2491 18.268C28.5688 18.4004 28.8422 18.6247 29.0345 18.9125C29.2267 19.2003 29.3294 19.5386 29.3294 19.8848C29.3289 20.3488 29.1444 20.7936 28.8163 21.1217C28.4882 21.4498 28.0434 21.6343 27.5794 21.6348ZM27.5794 19.0098C27.4063 19.0098 27.2371 19.0611 27.0933 19.1572C26.9494 19.2534 26.8372 19.39 26.771 19.5499C26.7048 19.7098 26.6874 19.8857 26.7212 20.0555C26.755 20.2252 26.8383 20.3811 26.9607 20.5035C27.083 20.6259 27.2389 20.7092 27.4087 20.743C27.5784 20.7767 27.7543 20.7594 27.9142 20.6932C28.0741 20.6269 28.2108 20.5148 28.3069 20.3709C28.4031 20.227 28.4544 20.0578 28.4544 19.8848C28.454 19.6528 28.3617 19.4305 28.1977 19.2664C28.0337 19.1024 27.8113 19.0101 27.5794 19.0098Z" fill="black"/>
<path d="M27.5869 20.3223C27.4708 20.3228 27.3593 20.2773 27.2769 20.1957C27.1944 20.114 27.1478 20.003 27.1472 19.887C27.1466 19.7709 27.1921 19.6594 27.2738 19.577C27.3554 19.4945 27.4665 19.4478 27.5825 19.4473H27.5869C27.7029 19.4473 27.8142 19.4934 27.8962 19.5754C27.9783 19.6575 28.0244 19.7687 28.0244 19.8848C28.0244 20.0008 27.9783 20.1121 27.8962 20.1941C27.8142 20.2762 27.7029 20.3223 27.5869 20.3223ZM26.2661 20.3223H22.7656C22.6496 20.3223 22.5383 20.2762 22.4563 20.1941C22.3742 20.1121 22.3281 20.0008 22.3281 19.8848C22.3281 19.7687 22.3742 19.6575 22.4563 19.5754C22.5383 19.4934 22.6496 19.4473 22.7656 19.4473H26.2661C26.3821 19.4473 26.4934 19.4934 26.5754 19.5754C26.6575 19.6575 26.7036 19.7687 26.7036 19.8848C26.7036 20.0008 26.6575 20.1121 26.5754 20.1941C26.4934 20.2762 26.3821 20.3223 26.2661 20.3223ZM33.2656 21.6348H6.14062C6.02459 21.6348 5.91331 21.5887 5.83127 21.5066C5.74922 21.4246 5.70312 21.3133 5.70312 21.1973C5.70312 21.0812 5.74922 20.97 5.83127 20.8879C5.91331 20.8059 6.02459 20.7598 6.14062 20.7598H33.2656C33.3817 20.7598 33.4929 20.8059 33.575 20.8879C33.657 20.97 33.7031 21.0812 33.7031 21.1973C33.7031 21.3133 33.657 21.4246 33.575 21.5066C33.4929 21.5887 33.3817 21.6348 33.2656 21.6348ZM33.2656 22.9473H6.14062C6.02459 22.9473 5.91331 22.9012 5.83127 22.8191C5.74922 22.7371 5.70312 22.6258 5.70312 22.5098C5.70312 22.3937 5.74922 22.2825 5.83127 22.2004C5.91331 22.1184 6.02459 22.0723 6.14062 22.0723H33.2656C33.3817 22.0723 33.4929 22.1184 33.575 22.2004C33.657 22.2825 33.7031 22.3937 33.7031 22.5098C33.7031 22.6258 33.657 22.7371 33.575 22.8191C33.4929 22.9012 33.3817 22.9473 33.2656 22.9473Z" fill="black"/>
</g>
<defs>
<clipPath id="clip0_4258_252">
<rect width="28" height="28" fill="white" transform="translate(5.70312 1.29102)"/>
</clipPath>
</defs>
</svg>
