<svg width="28" height="28" viewBox="0 0 28 28" fill="none" xmlns="http://www.w3.org/2000/svg">
<path d="M27.6753 13.9994C27.6753 6.4405 21.559 0.324219 14.0009 0.324219C6.44201 0.324219 0.324219 6.4405 0.324219 13.9994C0.324219 21.5582 6.44201 27.6745 14.0009 27.6745C21.559 27.6745 27.6753 21.559 27.6753 13.9994Z" fill="#DA4453"/>
<path d="M14.0015 28C6.28135 28 0 21.7194 0 14C0 6.28059 6.28135 0 14.0015 0C21.7202 0 28.0008 6.28059 28.0008 14C28.0008 21.7194 21.7209 28 14.0015 28ZM14.0015 0.64969C6.63936 0.64969 0.64969 6.6386 0.64969 14C0.64969 21.3622 6.63936 27.3503 14.0015 27.3503C21.3629 27.3503 27.3511 21.3614 27.3511 14C27.3511 6.6386 21.3629 0.64969 14.0015 0.64969Z" fill="black"/>
<path d="M14.0011 0.324219C13.9958 0.324219 13.992 0.324972 13.9883 0.324972V27.6745C13.992 27.6745 13.9958 27.6753 14.0011 27.6753C21.5592 27.6753 27.6755 21.559 27.6755 14.0001C27.6755 6.44125 21.5592 0.324219 14.0011 0.324219Z" fill="#C9E1FF"/>
<path d="M14.0017 28C13.9927 28 13.9776 27.9992 13.9686 27.9985C13.7997 27.9849 13.6641 27.844 13.6641 27.6744V0.324845C13.6641 0.145464 13.8103 6.78287e-08 13.9889 6.78287e-08C21.7204 -0.000753633 28.0002 6.27984 28.0002 13.9992C28.0002 21.7187 21.7211 28 14.0017 28ZM14.3138 0.652703V27.3473C21.5312 27.18 27.3505 21.2566 27.3505 14C27.3513 6.74336 21.5319 0.820025 14.3138 0.652703Z" fill="black"/>
</svg>
