<svg width="200" height="69" viewBox="0 0 200 69" fill="none" xmlns="http://www.w3.org/2000/svg">
<g clip-path="url(#clip0_4258_542)">
<path fill-rule="evenodd" clip-rule="evenodd" d="M0.0346124 68.0479H62.4603L66.0025 63.1547H3.57348L0.0346124 68.0479ZM0 54.3069H62.4257L65.9316 59.1643H3.5059L0 54.3069ZM196.303 63.1547H133.874L137.414 68.0479H199.84L196.303 63.1547ZM196.37 59.1643H133.945L137.451 54.3069H199.876L196.37 59.1643Z" fill="#D9001E"/>
<path fill-rule="evenodd" clip-rule="evenodd" d="M196.37 4.85696L199.876 -0.000425339H0L3.5059 4.85696H196.37ZM196.303 8.84894L199.84 13.7422H0.0346124L3.57348 8.84894H196.303Z" fill="#002E68"/>
<path fill-rule="evenodd" clip-rule="evenodd" d="M74.3633 62.2529H125.479V60.1035H74.3633V62.2529Z" fill="#002E68"/>
<path fill-rule="evenodd" clip-rule="evenodd" d="M27.9605 25.5538V23.2086H34.6288V25.5538H32.8537L26.1983 43.7584H22.4701L15.9102 25.5538H14.0938V23.2086H20.7626V25.5538H18.9726L24.2469 41.3998L29.8984 25.5538H27.9605ZM43.9693 43.7584V42.4563C43.4355 42.9543 42.8452 43.3614 42.1992 43.6778C41.5532 43.9926 40.8194 44.1509 39.9972 44.1509C39.3099 44.1509 38.6802 44.0436 38.1068 43.8258C37.5313 43.6086 37.0368 43.3133 36.6216 42.9378C36.2064 42.5635 35.8832 42.1267 35.6525 41.6306C35.4216 41.1327 35.3064 40.6036 35.3064 40.0432C35.3064 39.4484 35.3954 38.9191 35.5719 38.458C35.7482 37.9981 35.9819 37.5973 36.2756 37.2581C36.5705 36.92 36.9132 36.6347 37.3056 36.404C37.6997 36.1749 38.1098 35.9888 38.5401 35.8487C38.9689 35.7086 39.4073 35.6098 39.8554 35.5504C40.3022 35.4927 40.7288 35.463 41.1359 35.463C41.7853 35.463 42.3326 35.4829 42.776 35.5238C43.2178 35.5636 43.6199 35.6212 43.9824 35.6939L43.9959 34.5415C43.9959 34.0441 43.9233 33.6121 43.7781 33.2462C43.6347 32.8804 43.4305 32.577 43.1684 32.3382C42.9064 32.0988 42.5929 31.9209 42.2271 31.8023C41.8613 31.6855 41.4524 31.626 40.9993 31.626C40.5757 31.626 40.1684 31.6555 39.7794 31.715C39.3921 31.7728 39.028 31.85 38.6886 31.9457C38.3508 32.0399 38.0389 32.1483 37.7541 32.2703C37.4688 32.3926 37.2267 32.5208 37.0287 32.6563L36.2013 30.9074C36.5359 30.6913 36.9018 30.4905 37.2992 30.3056C37.6979 30.1195 38.1149 29.9613 38.5533 29.8309C38.9916 29.6994 39.4384 29.5955 39.895 29.5196C40.3515 29.442 40.8013 29.4044 41.2448 29.4044C42.0574 29.4044 42.7891 29.5015 43.4402 29.6943C44.0912 29.8888 44.6419 30.1906 45.0933 30.596C45.5452 31.0031 45.8929 31.5205 46.1368 32.1483C46.3807 32.7766 46.5026 33.528 46.5026 34.4049L46.4895 41.4264H48.0486V43.7584H43.9693ZM40.5524 42.0361C40.887 42.0361 41.2216 41.9963 41.5562 41.9141C41.8908 41.8335 42.2056 41.7229 42.5039 41.583C42.8026 41.4428 43.0777 41.2795 43.3313 41.0951C43.5853 40.9087 43.7963 40.7175 43.9693 40.5179L43.9824 37.3471H41.0537C40.5659 37.3471 40.1208 37.4015 39.7186 37.5099C39.3166 37.6171 38.9689 37.7753 38.6751 37.9833C38.3819 38.1926 38.1528 38.4496 37.9913 38.7563C37.8279 39.0643 37.7473 39.4154 37.7473 39.8141C37.7473 40.1833 37.8149 40.5065 37.9502 40.7833C38.0852 41.0588 38.2781 41.2893 38.5271 41.474C38.7743 41.6601 39.071 41.8002 39.4135 41.8943C39.7583 41.9901 40.1373 42.0361 40.5524 42.0361ZM60.9937 29.6331V32.6841H58.4174V31.817C58.1191 31.817 57.8144 31.8732 57.5026 31.9855C57.1912 32.0988 56.8997 32.2703 56.6292 32.501C56.357 32.7318 56.1199 33.0255 55.9174 33.3812C55.7144 33.739 55.5676 34.1609 55.4773 34.6488V41.4264H57.8621V43.7584H50.895V41.4264H52.8334L52.8465 32.0461H50.895V29.7159H55.3815V31.6542C55.5448 31.3639 55.7275 31.0951 55.9305 30.8462C56.1347 30.5993 56.3604 30.3816 56.6077 30.1968C56.8566 30.0107 57.1317 29.8674 57.4351 29.7635C57.7385 29.6597 58.0663 29.6069 58.4174 29.6069C58.8874 29.6069 59.3305 29.6069 59.7461 29.6069C60.1629 29.6069 60.5781 29.6153 60.9937 29.6331ZM72.1634 43.7584V42.4563C71.6296 42.9543 71.0393 43.3614 70.3933 43.6778C69.7473 43.9926 69.014 44.1509 68.1912 44.1509C67.5039 44.1509 66.8743 44.0436 66.3009 43.8258C65.7275 43.6086 65.2313 43.3133 64.8157 42.9378C64.4005 42.5635 64.0773 42.1267 63.8465 41.6306C63.6161 41.1327 63.5005 40.6036 63.5005 40.0432C63.5005 39.4484 63.5895 38.9191 63.7659 38.458C63.9423 37.9981 64.1764 37.5973 64.4697 37.2581C64.7646 36.92 65.1077 36.6347 65.4997 36.404C65.8937 36.1749 66.3043 35.9888 66.7343 35.8487C67.1629 35.7086 67.6013 35.6098 68.0494 35.5504C68.4963 35.4927 68.9233 35.463 69.3305 35.463C69.9798 35.463 70.5271 35.4829 70.9701 35.5238C71.4119 35.5636 71.814 35.6212 72.1769 35.6939L72.1899 34.5415C72.1899 34.0441 72.1174 33.6121 71.9722 33.2462C71.8288 32.8804 71.6245 32.577 71.3625 32.3382C71.1005 32.0988 70.7874 31.9209 70.4216 31.8023C70.0554 31.6855 69.6469 31.626 69.1933 31.626C68.7697 31.626 68.3629 31.6555 67.9739 31.715C67.5866 31.7728 67.222 31.85 66.8828 31.9457C66.5448 32.0399 66.2334 32.1483 65.9482 32.2703C65.6629 32.3926 65.4208 32.5208 65.2229 32.6563L64.3954 30.9074C64.73 30.6913 65.0959 30.4905 65.4933 30.3056C65.8921 30.1195 66.3089 29.9613 66.7478 29.8309C67.1862 29.6994 67.6326 29.5955 68.0891 29.5196C68.5457 29.442 68.9959 29.4044 69.4389 29.4044C70.2516 29.4044 70.9836 29.5015 71.6347 29.6943C72.2853 29.8888 72.8359 30.1906 73.2878 30.596C73.7393 31.0031 74.087 31.5205 74.3309 32.1483C74.5748 32.7766 74.6967 33.528 74.6967 34.4049L74.6836 41.4264H76.2427V43.7584H72.1634ZM68.7469 42.0361C69.0815 42.0361 69.4161 41.9963 69.7507 41.9141C70.0853 41.8335 70.4001 41.7229 70.6984 41.583C70.9967 41.4428 71.2718 41.2795 71.5258 41.0951C71.7794 40.9087 71.9904 40.7175 72.1634 40.5179L72.1769 37.3471H69.2478C68.76 37.3471 68.3148 37.4015 67.9127 37.5099C67.5106 37.6171 67.1629 37.7753 66.8697 37.9833C66.576 38.1926 66.3469 38.4496 66.1853 38.7563C66.0224 39.0643 65.9414 39.4154 65.9414 39.8141C65.9414 40.1833 66.0094 40.5065 66.1444 40.7833C66.2794 41.0588 66.4722 41.2893 66.7212 41.474C66.9684 41.6601 67.2651 41.8002 67.6081 41.8943C67.9524 41.9901 68.3313 42.0361 68.7469 42.0361ZM79.0895 32.0461V29.7159H83.5625V31.3555H83.5891C83.8971 31.0934 84.2203 30.8462 84.5579 30.6171C84.8975 30.3867 85.252 30.1855 85.6229 30.014C85.9937 29.8428 86.3794 29.7057 86.7815 29.6069C87.1836 29.5082 87.6022 29.4568 88.0359 29.4568C89.0478 29.4568 89.9195 29.6448 90.6516 30.0204C91.3832 30.3948 91.9486 30.9799 92.3456 31.7761C92.6904 31.4677 93.0511 31.1727 93.4305 30.8876C93.8094 30.6023 94.2051 30.3567 94.617 30.1492C95.0275 29.9415 95.4592 29.7732 95.911 29.6483C96.3625 29.5212 96.8321 29.4568 97.3216 29.4568C98.0798 29.4568 98.7621 29.5623 99.3672 29.7703C99.9722 29.9778 100.488 30.2942 100.913 30.718C101.337 31.1432 101.66 31.6871 101.882 32.3512C102.103 33.0154 102.214 33.7998 102.214 34.7032V41.4264H104.167V43.7584H97.6051V41.4264H99.5849V35.0145C99.5849 33.9402 99.3127 33.1242 98.7705 32.5689C98.2283 32.0133 97.4469 31.7347 96.4267 31.7347C95.8203 31.7347 95.2022 31.88 94.5693 32.1681C93.9364 32.4585 93.3942 32.8242 92.9427 33.2659V41.4264H94.8807V43.7584H88.3343V41.4264H90.3136V35.0145C90.3136 33.9402 90.0402 33.1242 89.4929 32.5689C88.9456 32.0133 88.1625 31.7347 87.141 31.7347C86.5541 31.7347 85.9625 31.8749 85.3655 32.155C84.7689 32.4353 84.2039 32.7828 83.6714 33.1985V41.4264H85.649V43.7584H79.0895V41.4264H81.0406V32.0461H79.0895ZM106.769 32.0461V29.7159H111.35V41.4264H113.464V43.7584H106.796V41.4264H108.801V32.0461H106.769ZM108.327 24.7415C108.327 24.5057 108.375 24.2816 108.47 24.069C108.564 23.858 108.691 23.6719 108.849 23.5137C109.008 23.3555 109.195 23.2301 109.411 23.1344C109.629 23.039 109.86 22.9926 110.103 22.9926C110.338 22.9926 110.562 23.039 110.774 23.1344C110.985 23.2301 111.172 23.3555 111.33 23.5137C111.488 23.6719 111.615 23.858 111.709 24.069C111.805 24.2816 111.852 24.5057 111.852 24.7415C111.852 24.9854 111.805 25.2145 111.709 25.4318C111.615 25.6496 111.488 25.8407 111.33 26.0074C111.172 26.1754 110.985 26.3057 110.774 26.401C110.562 26.4968 110.338 26.5428 110.103 26.5428C109.86 26.5428 109.629 26.4968 109.411 26.401C109.195 26.3057 109.008 26.1754 108.849 26.0074C108.691 25.8407 108.564 25.6496 108.47 25.4318C108.375 25.2145 108.327 24.9854 108.327 24.7415ZM123.889 33.4834C123.889 33.1044 123.8 32.7812 123.624 32.5145C123.447 32.2475 123.22 32.0315 122.94 31.8635C122.66 31.6969 122.348 31.5749 122.004 31.4972C121.661 31.4217 121.326 31.382 121.002 31.382C120.639 31.382 120.308 31.4234 120.004 31.504C119.703 31.5863 119.442 31.7036 119.225 31.8567C119.009 32.0099 118.839 32.1981 118.717 32.4188C118.595 32.6411 118.534 32.8867 118.534 33.1588C118.534 33.6284 118.676 34.001 118.961 34.2761C119.246 34.5517 119.722 34.807 120.392 35.0429L123.088 35.9923C124.245 36.3796 125.091 36.9086 125.623 37.5778C126.157 38.2453 126.422 39.0462 126.422 39.9758C126.422 40.6006 126.299 41.1706 126.05 41.6917C125.801 42.2108 125.45 42.6541 124.993 43.02C124.537 43.3858 123.988 43.6694 123.347 43.8736C122.704 44.0765 121.99 44.1787 121.204 44.1787C120.111 44.1787 119.222 44.0024 118.534 43.6495C117.847 43.2968 117.319 42.8323 116.949 42.2538H115.539V39.9212H118.345C118.345 40.3104 118.429 40.6431 118.595 40.9188C118.762 41.1938 118.984 41.418 119.26 41.5892C119.535 41.7609 119.848 41.8875 120.195 41.9685C120.544 42.0509 120.898 42.0904 121.259 42.0904C121.611 42.0904 121.949 42.0474 122.276 41.9617C122.6 41.8762 122.887 41.7491 123.136 41.583C123.385 41.4145 123.581 41.2154 123.726 40.9796C123.871 40.7437 123.942 40.4787 123.942 40.1804C123.942 39.7284 123.795 39.3445 123.502 39.0281C123.209 38.7116 122.709 38.4263 122.004 38.1744L119.32 37.1707C118.228 36.7816 117.417 36.2871 116.888 35.6853C116.359 35.0854 116.095 34.3323 116.095 33.4293C116.095 32.8323 116.205 32.282 116.426 31.7761C116.647 31.2698 116.968 30.833 117.389 30.4673C117.809 30.1014 118.322 29.8146 118.927 29.6069C119.533 29.3994 120.224 29.2956 121.002 29.2956C122.005 29.2956 122.844 29.4357 123.522 29.7159C124.201 29.9959 124.811 30.474 125.353 31.1529H126.668V33.4834H123.889ZM135.898 25.5538V23.2086H144.452C145.364 23.2086 146.206 23.3289 146.979 23.5677C147.752 23.8069 148.421 24.1597 148.985 24.6259C149.55 25.0909 149.99 25.6711 150.307 26.3664C150.623 27.0639 150.782 27.8631 150.782 28.7665C150.782 29.282 150.689 29.7901 150.503 30.2909C150.318 30.7935 150.061 31.2584 149.731 31.6871C149.4 32.1171 149.009 32.498 148.558 32.8323C148.106 33.1669 147.614 33.4242 147.081 33.6056C147.307 33.7044 147.534 33.8479 147.765 34.0322C147.996 34.2188 148.214 34.4444 148.416 34.7099C148.619 34.9769 148.805 35.2799 148.972 35.618C149.14 35.9576 149.273 36.3217 149.372 36.709L150.509 41.1825H152.286L152.313 43.7584H148.314L146.783 37.5099C146.503 36.3893 146.076 35.5636 145.502 35.0361C144.929 34.5069 144.144 34.2432 143.15 34.2432H140.506V41.4264H142.567V43.7584H135.898V41.4264H137.849V25.5538H135.898ZM144.126 25.5538H140.506V32.0201H144.452C144.966 32.0201 145.438 31.9525 145.868 31.817C146.297 31.6804 146.668 31.4778 146.979 31.2057C147.29 30.9352 147.534 30.5993 147.711 30.1968C147.887 29.7947 147.976 29.3267 147.976 28.7944C147.976 27.7723 147.668 26.9782 147.055 26.4077C146.44 25.839 145.464 25.5538 144.126 25.5538ZM163.334 43.7584V42.4563C162.8 42.9543 162.21 43.3614 161.564 43.6778C160.918 43.9926 160.184 44.1509 159.362 44.1509C158.675 44.1509 158.045 44.0436 157.47 43.8258C156.896 43.6086 156.402 43.3133 155.987 42.9378C155.571 42.5635 155.248 42.1267 155.017 41.6306C154.787 41.1327 154.671 40.6036 154.671 40.0432C154.671 39.4484 154.76 38.9191 154.936 38.458C155.113 37.9981 155.347 37.5973 155.64 37.2581C155.935 36.92 156.278 36.6347 156.671 36.404C157.064 36.1749 157.475 35.9888 157.905 35.8487C158.333 35.7086 158.772 35.6098 159.22 35.5504C159.667 35.4927 160.094 35.463 160.501 35.463C161.15 35.463 161.698 35.4829 162.141 35.5238C162.582 35.5636 162.985 35.6212 163.347 35.6939L163.36 34.5415C163.36 34.0441 163.288 33.6121 163.143 33.2462C163 32.8804 162.795 32.577 162.533 32.3382C162.271 32.0988 161.958 31.9209 161.592 31.8023C161.226 31.6855 160.817 31.626 160.364 31.626C159.941 31.626 159.533 31.6555 159.144 31.715C158.757 31.7728 158.393 31.85 158.053 31.9457C157.715 32.0399 157.404 32.1483 157.119 32.2703C156.833 32.3926 156.591 32.5208 156.393 32.6563L155.566 30.9074C155.9 30.6913 156.267 30.4905 156.664 30.3056C157.063 30.1195 157.48 29.9613 157.918 29.8309C158.357 29.6994 158.803 29.5955 159.26 29.5196C159.716 29.442 160.166 29.4044 160.608 29.4044C161.422 29.4044 162.154 29.5015 162.805 29.6943C163.454 29.8888 164.006 30.1906 164.458 30.596C164.91 31.0031 165.257 31.5205 165.501 32.1483C165.745 32.7766 165.868 33.528 165.868 34.4049L165.854 41.4264H167.414V43.7584H163.334ZM159.917 42.0361C160.252 42.0361 160.587 41.9963 160.921 41.9141C161.256 41.8335 161.571 41.7229 161.869 41.583C162.167 41.4428 162.444 41.2795 162.696 41.0951C162.95 40.9087 163.161 40.7175 163.334 40.5179L163.347 37.3471H160.42C159.93 37.3471 159.486 37.4015 159.083 37.5099C158.681 37.6171 158.333 37.7753 158.04 37.9833C157.746 38.1926 157.517 38.4496 157.356 38.7563C157.193 39.0643 157.112 39.4154 157.112 39.8141C157.112 40.1833 157.18 40.5065 157.315 40.7833C157.45 41.0588 157.643 41.2893 157.892 41.474C158.139 41.6601 158.436 41.8002 158.779 41.8943C159.121 41.9901 159.502 42.0361 159.917 42.0361ZM170.151 32.0461V29.7159H174.733V41.4264H176.848V43.7584H170.179V41.4264H172.185V32.0461H170.151ZM171.71 24.7415C171.71 24.5057 171.758 24.2816 171.852 24.069C171.948 23.858 172.074 23.6719 172.233 23.5137C172.391 23.3555 172.577 23.2301 172.795 23.1344C173.011 23.039 173.241 22.9926 173.485 22.9926C173.721 22.9926 173.944 23.039 174.156 23.1344C174.369 23.2301 174.554 23.3555 174.711 23.5137C174.871 23.6719 174.997 23.858 175.092 24.069C175.187 24.2816 175.234 24.5057 175.234 24.7415C175.234 24.9854 175.187 25.2145 175.092 25.4318C174.997 25.6496 174.871 25.8407 174.711 26.0074C174.554 26.1754 174.369 26.3057 174.156 26.401C173.944 26.4968 173.721 26.5428 173.485 26.5428C173.241 26.5428 173.011 26.4968 172.795 26.401C172.577 26.3057 172.391 26.1754 172.233 26.0074C172.074 25.8407 171.948 25.6496 171.852 25.4318C171.758 25.2145 171.71 24.9854 171.71 24.7415ZM179.056 24.9985V22.6664H183.612V41.4264H185.725V43.7584H179.056V41.4264H181.09V24.9985H179.056Z" fill="#002E68"/>
</g>
<defs>
<clipPath id="clip0_4258_542">
<rect width="200" height="68.3544" fill="white"/>
</clipPath>
</defs>
</svg>
