<svg width="24" height="24" viewBox="0 0 24 24" fill="none" xmlns="http://www.w3.org/2000/svg">
<path d="M12.0002 0.27832C5.52118 0.27832 0.279297 5.52085 0.279297 11.9999H12.0002V0.27832Z" fill="#DA4453"/>
<path d="M11.9994 12.2784H0.278439C0.124038 12.2784 0 12.1538 0 12C0 5.38336 5.38208 0 11.9994 0C12.1531 0 12.2778 0.124684 12.2778 0.278439V12C12.2778 12.1544 12.1531 12.2784 11.9994 12.2784ZM0.560111 11.7216H11.7209V0.560106C5.63209 0.706108 0.705467 5.63273 0.560111 11.7216Z" fill="black"/>
<path d="M0.279297 12C0.279297 18.4784 5.52118 23.7216 12.0002 23.7216V12H0.279297Z" fill="#DA4453"/>
<path d="M11.9994 24.0001C5.38208 24.0001 0 18.6168 0 12.0001C0 11.8464 0.124038 11.7217 0.278439 11.7217H11.9994C12.1531 11.7217 12.2778 11.8464 12.2778 12.0001V23.7217C12.2778 23.8761 12.1531 24.0001 11.9994 24.0001ZM0.560111 12.2786C0.706113 18.368 5.63274 23.294 11.7209 23.44V12.2786H0.560111Z" fill="black"/>
<path d="M12 0.27832V11.9999H23.7216C23.7216 5.52085 18.479 0.27832 12 0.27832Z" fill="#DA4453"/>
<path d="M23.7207 12.2784H11.9991C11.8454 12.2784 11.7207 12.1538 11.7207 12V0.278439C11.7207 0.124684 11.8454 0 11.9991 0C18.6158 0 23.9991 5.38336 23.9991 12C23.9991 12.1544 23.8751 12.2784 23.7207 12.2784ZM12.2776 11.7216H23.439C23.2924 5.63208 18.3664 0.706108 12.2776 0.560106V11.7216Z" fill="black"/>
<path d="M12 23.7216C18.4784 23.7216 23.7216 18.4784 23.7216 12H12V23.7216Z" fill="#C9E1FF"/>
<path d="M11.9991 24.0001C11.8454 24.0001 11.7207 23.8754 11.7207 23.7217V12.0001C11.7207 11.8464 11.8454 11.7217 11.9991 11.7217H23.7207C23.8745 11.7217 23.9991 11.8464 23.9991 12.0001C23.9991 18.6168 18.6164 24.0001 11.9991 24.0001ZM12.2776 12.2786V23.44C18.3664 23.294 23.293 18.3674 23.439 12.2786H12.2776Z" fill="black"/>
</svg>
